#!OML:ASF F:\VICON\USERDATA\INSTALL\rory3\rory3.ASF
:FULLY-SPECIFIED
:DEGREES
73
root -0.23615067289296449 17.658027519718363 37.733541264594606 3.4365927485974423 1.8765420069533256 1.0034715976899045
lfemur 6.002344601043578 -2.222354028069463 -27.456628938859833
ltibia 30.48100749875841
lfoot -6.752504724732887 -5.1760070119118655
ltoes -27.028565565563166
rfemur -48.05658056108812 -5.8220157861618365 21.651884686616864
rtibia 99.28039952530995
rfoot 5.205518990332351 -4.881714363087335
rtoes 3.011956923676615
lowerback 14.75984514909862 -0.7699935770813126 -2.4422940185033353
upperback -1.0086968169969308 -1.411099387169846 0.17089614885866622
thorax -9.365012071052249 -0.5452674295848902 2.0470643123044914
lowerneck -20.175882423491526 -3.4417271126648115 -2.1136525701414186
upperneck 16.855185530912323 -4.859885740666628 3.4600608155088652
head 8.792023044222548 -2.0258433420728204 0.8912958642630333
lclavicle -8.650795802370934e-16 -7.358041306193778e-16
lhumerus -33.796965570827474 -8.642085557448668 93.99397257838977
lradius 113.12374854718843
lwrist 44.792472223885554
lhand -23.19850883850634 2.4118665158279597
lfingers 7.125020000000057
lthumb 3.2510751584260165 32.31329199086102
rclavicle -8.650795802370934e-16 -7.358041306193778e-16
rhumerus -59.984549171565284 10.843588017032125 -101.31030143783302
rradius 105.12918711253593
rwrist -27.70776487478281
rhand -19.539051891845748 -4.440821715918521
rfingers 7.125020000000057
rthumb 6.783863892056855 9.353431105936039
74
root -0.2099727755299875 17.88387052878697 38.23075866558921 3.776958325920897 0.4693665956896538 0.5887303313748968
lfemur 10.314707911870851 -1.770470105550149 -27.0361630657373
ltibia 25.962044625489767
lfoot 2.000068993930404 -8.309096596243961
ltoes -28.16126820855968
rfemur -48.544052122452484 -4.066411251416399 22.930836026381947
rtibia 88.68039171209026
rfoot 5.067817864103832 -4.18797168242831
rtoes -0.07588367545059072
lowerback 13.825889897055658 -1.00139969398337 -2.2445661933353778
upperback -1.292128316632531 -1.645287029229992 0.5672005004040518
thorax -9.200838570589863 -0.6555931376038192 2.3851365760546615
lowerneck -19.926769150066246 -3.025237000431007 -2.2402177710832127
upperneck 17.453158728966102 -4.228699236153979 3.220701095671058
head 8.922200729076899 -1.7560687015240615 0.9060498432123598
lclavicle -8.070752897909501e-16 -6.908912326509287e-16
lhumerus -33.347166043804535 -7.927565776066402 92.99066336712184
lradius 113.90563381023429
lwrist 45.04069884028836
lhand -23.03286523244295 2.301501340543915
lfingers 7.125020000000057
lthumb 3.410981776320309 32.194217418161294
rclavicle -8.070752897909501e-16 -6.908912326509287e-16
rhumerus -62.26667843880571 10.558126726880495 -100.53363109858056
rradius 105.68550335840614
rwrist -28.29515035157401
rhand -19.299832383780377 -5.18978893434431
rfingers 7.125020000000057
rthumb 7.014833064558378 8.998708096220328
75
root -0.20182749133995526 18.075164584879538 38.385761641078915 4.035286863811613 -1.003481179298098 0.2353365511895431
lfemur 13.704121390327455 -1.7247143398430287 -26.887062509475506
ltibia 22.322511365162594
lfoot 10.230540886626162 -10.838060948066044
ltoes -26.747612532263787
rfemur -48.188266656031026 -2.3332701828726123 23.866966899247775
rtibia 76.61287580967058
rfoot 5.037539695539488 -3.507831635954248
rtoes -3.7687070638363087
lowerback 12.969895238178268 -1.1685994936489208 -2.119809399515593
upperback -1.5992075614136632 -1.8119946008951078 0.8795374584580457
thorax -9.13537583322041 -0.7327212007332412 2.612092658357966
lowerneck -19.624774899999036 -2.7110508413643295 -2.403888351826071
upperneck 17.863503847071946 -3.7349661523342754 3.009261637706167
head 8.98383192335575 -1.550938511623134 0.9224805220468454
lclavicle -1.0034477787224474e-15 -8.429430102148135e-16
lhumerus -33.51258299050605 -7.865863546755447 91.9970087839956
lradius 114.00670119320682
lwrist 44.403560294627454
lhand -22.79717955374275 2.2140047492367465
lfingers 7.125020000000057
lthumb 3.6385165258877112 32.09641232910439
rclavicle -1.0034477787224474e-15 -8.429430102148135e-16
rhumerus -64.50955286652795 9.68924876953173 -99.66180882651209
rradius 105.52635011226482
rwrist -28.34716641668689
rhand -19.18734489382189 -5.839654792407696
rfingers 7.125020000000057
rthumb 7.123587120123963 8.47540533881176
76
root -0.20067418062801706 18.225601597553027 39.181389453434704 4.271593718172748 -2.184663559261984 0.08195151370444531
lfemur 16.328872532255485 -2.1580968794262674 -26.957454729335225
ltibia 20.731038963199346
lfoot 17.08635230969471 -12.452639722926415
ltoes -23.50841491498698
rfemur -46.90799452521157 -0.9265494068093929 24.569157522222014
rtibia 64.52146072772965
rfoot 5.183969605049649 -2.998342905563166
rtoes -7.726252968308984
lowerback 12.334855019499038 -1.2956437722674283 -2.020932565803049
upperback -1.8850863035373835 -1.9429319681592636 1.1038880350749236
thorax -9.133164494955015 -0.7925015815582638 2.794385969369103
lowerneck -19.283432931906987 -2.4962777767566777 -2.5651403323954933
upperneck 18.137328457299354 -3.3828248254714044 2.8888730096754305
head 8.999271079777515 -1.4093468689378446 0.9520681870702642
lclavicle -1.001106336236827e-15 -8.411300184249372e-16
lhumerus -33.731017827324905 -8.310088195978011 91.28350912183352
lradius 114.42040629026042
lwrist 43.45364481666128
lhand -22.51947107416693 2.1937710234663825
lfingers 7.125020000000057
lthumb 3.906647532765418 32.068552911980625
rclavicle -1.001106336236827e-15 -8.411300184249372e-16
rhumerus -66.40366092951254 8.774511576150424 -98.6241244307352
rradius 105.86889243789267
rwrist -27.886422164247932
rhand -19.107601345831316 -6.095313333837733
rfingers 7.125020000000057
rthumb 7.200771491291659 8.075731555541035
